<?xml version="1.0" standalone="no"?>
<!DOCTYPE svg PUBLIC "-//W3C//DTD SVG 20010904//EN"
 "http://www.w3.org/TR/2001/REC-SVG-20010904/DTD/svg10.dtd">
<svg version="1.0" xmlns="http://www.w3.org/2000/svg"
 width="1024.000000pt" height="1024.000000pt" viewBox="0 0 1024.000000 1024.000000"
 preserveAspectRatio="xMidYMid meet">

<g transform="translate(0.000000,1024.000000) scale(0.100000,-0.100000)"
fill="#000000" stroke="none">
<path d="M4985 7930 c-235 -20 -553 -88 -760 -165 -132 -48 -376 -169 -500
-247 -623 -394 -1061 -1005 -1240 -1731 -45 -181 -65 -326 -72 -519 l-6 -157
430 -1 c331 0 433 3 441 13 5 6 51 134 102 284 94 276 102 293 143 278 8 -4
20 -18 25 -33 9 -23 87 -375 208 -936 21 -96 30 -122 36 -105 4 13 30 195 58
404 28 209 62 461 75 560 27 197 53 403 91 710 53 437 48 415 93 415 19 0 34
-7 40 -18 7 -13 58 -414 74 -581 2 -19 -6 -26 -45 -42 l-46 -18 -7 70 c-4 38
-10 69 -15 69 -4 0 -11 -33 -14 -72 -8 -78 -81 -639 -141 -1078 -20 -146 -51
-383 -69 -527 -19 -154 -38 -268 -45 -277 -18 -22 -68 -20 -79 2 -12 22 -43
163 -178 802 -45 216 -87 381 -94 373 -4 -4 -29 -71 -55 -148 -26 -77 -57
-161 -68 -187 l-19 -48 -117 -2 c-64 -1 -183 -2 -266 -2 -82 -1 -242 -2 -354
-3 l-204 -3 7 -97 c15 -201 74 -523 97 -523 4 0 6 -6 3 -14 -7 -18 56 -210
117 -355 37 -87 54 -118 65 -114 8 3 14 9 14 15 0 5 -4 7 -9 4 -12 -8 -26 11
-47 63 -17 42 -17 44 2 59 18 14 18 14 -3 9 -30 -7 -29 -3 3 18 15 9 23 12 20
6 -5 -7 3 -11 22 -11 26 0 29 -3 25 -28 -4 -23 -3 -24 7 -9 6 9 16 17 23 17 7
0 6 -4 -3 -10 -12 -8 -11 -10 7 -10 15 0 21 -5 17 -14 -6 -17 12 -31 21 -16 4
7 13 7 26 -1 16 -8 25 -7 40 7 10 9 19 12 19 6 0 -6 -6 -13 -12 -15 -9 -4 -8
-6 2 -6 11 -1 16 -11 16 -33 0 -25 4 -33 17 -32 9 1 14 -3 10 -9 -4 -6 3 -8
21 -3 20 5 26 3 26 -10 0 -14 3 -13 19 5 19 22 19 22 26 2 3 -12 13 -21 21
-21 8 0 13 4 10 9 -3 5 1 12 10 15 8 3 12 2 9 -3 -9 -15 15 -24 30 -11 16 13
55 -6 55 -27 0 -16 16 -17 26 -1 4 7 3 8 -4 4 -8 -5 -12 1 -12 15 0 18 2 19
15 9 8 -7 21 -10 29 -7 16 6 30 -19 16 -28 -6 -4 -10 -1 -10 4 0 6 -4 11 -10
11 -5 0 -10 -9 -10 -20 0 -11 5 -20 11 -20 6 0 9 -7 6 -14 -4 -9 -1 -13 6 -11
15 6 29 -3 49 -33 14 -20 16 -21 29 -6 11 14 10 15 -6 12 -10 -1 -20 3 -23 11
-2 8 0 11 5 8 5 -3 10 0 10 8 0 11 -4 12 -14 3 -10 -8 -12 -7 -8 5 4 8 17 17
30 20 14 2 22 1 20 -3 -3 -4 2 -13 10 -20 9 -8 11 -17 5 -28 -12 -24 -22 -54
-25 -74 -1 -14 2 -13 21 5 15 14 19 26 13 32 -5 5 -9 14 -9 20 0 5 5 3 10 -5
8 -12 10 -12 10 5 0 16 2 17 9 5 6 -8 7 -18 5 -22 -3 -4 1 -8 8 -8 7 0 0 -9
-17 -20 -16 -11 -25 -20 -18 -20 6 0 15 5 18 10 10 17 33 11 58 -14 14 -14 23
-27 21 -29 -3 -2 2 -10 11 -17 8 -7 15 -19 15 -27 0 -8 4 -12 9 -9 5 4 12 0
14 -6 3 -8 6 -6 6 5 1 9 -3 17 -9 17 -5 0 -10 6 -10 13 1 6 9 2 20 -11 10 -13
16 -30 13 -37 -3 -8 0 -15 6 -15 6 0 11 -9 11 -20 0 -11 7 -20 16 -20 8 0 13
-4 10 -9 -3 -4 4 -8 17 -7 15 1 21 -4 19 -16 -1 -9 3 -20 9 -24 8 -5 10 -2 5
7 -4 8 2 3 14 -11 12 -14 18 -18 14 -10 -5 10 -1 9 14 -4 12 -10 20 -23 19
-29 -1 -6 5 -12 13 -12 8 0 14 -6 13 -13 -2 -7 3 -11 10 -9 6 1 11 -4 9 -11
-1 -8 1 -11 6 -8 11 7 85 -68 76 -77 -4 -4 0 -7 9 -7 9 0 27 -11 41 -25 14
-14 20 -25 14 -25 -6 0 -6 -6 2 -15 7 -9 19 -14 26 -11 13 5 36 -16 33 -30 -4
-21 2 -26 16 -14 14 12 15 10 11 -13 -3 -15 0 -27 5 -27 5 0 9 5 9 10 0 6 5
10 11 10 5 0 7 -5 3 -12 -5 -7 -2 -9 9 -5 15 6 34 -9 36 -28 1 -5 7 -10 14
-10 17 0 107 -66 108 -79 1 -6 1 -15 0 -20 -1 -5 7 -6 19 -3 13 3 20 0 20 -9
0 -8 6 -13 13 -11 7 1 12 -7 11 -19 -1 -15 4 -21 15 -19 9 1 19 -3 23 -9 5 -8
8 -7 8 2 0 7 5 10 10 7 7 -4 6 -13 -1 -27 -12 -22 3 -49 15 -29 4 6 2 11 -4
11 -6 0 -8 5 -5 11 5 6 12 4 20 -8 7 -10 11 -21 9 -25 -3 -4 3 -5 12 -1 12 4
15 3 10 -5 -4 -8 -2 -10 7 -6 8 3 18 0 22 -5 3 -6 10 -9 15 -6 4 3 7 -6 6 -19
-3 -22 -1 -23 25 -16 18 5 29 5 29 -1 0 -6 5 -7 11 -4 6 4 13 -3 16 -15 3 -11
11 -19 18 -16 16 6 42 -11 31 -21 -5 -4 -11 -2 -13 5 -4 10 -10 9 -26 -5 -11
-10 -17 -12 -13 -5 4 6 3 12 -2 12 -6 0 -8 8 -5 18 3 12 -1 19 -11 19 -16 0
-17 -22 -3 -44 9 -14 -18 -7 -41 10 -9 7 -11 6 -6 -7 3 -9 11 -16 18 -16 6 -1
30 -5 53 -9 24 -5 40 -4 37 0 -3 5 2 9 10 9 9 0 16 -4 16 -9 0 -5 10 -11 21
-13 31 -4 49 -35 29 -48 -10 -6 -11 -10 -2 -10 6 0 12 -12 12 -27 0 -24 1 -25
18 -10 15 13 19 13 31 0 7 -8 20 -12 28 -9 8 3 11 1 8 -4 -3 -6 -1 -10 4 -10
6 0 11 -7 11 -16 0 -8 5 -12 10 -9 6 3 13 -1 16 -10 4 -9 13 -14 20 -11 8 3
14 1 14 -3 0 -5 -5 -11 -12 -13 -6 -2 3 -10 20 -17 18 -8 32 -18 32 -23 0 -5
-5 -6 -12 -2 -7 5 -8 3 -2 -7 5 -8 9 -17 9 -21 0 -3 4 -10 9 -15 6 -5 6 -2 1
6 -6 11 -4 13 11 8 18 -7 18 -6 2 6 -18 14 -14 27 8 27 13 0 13 -38 -1 -60 -5
-8 -4 -11 3 -6 6 3 13 2 17 -4 4 -6 10 -8 15 -5 4 3 10 -2 14 -10 3 -8 1 -15
-3 -15 -13 0 -21 -29 -10 -35 5 -4 8 -1 7 5 -2 7 4 14 12 15 10 2 17 -5 18
-19 0 -11 6 -22 12 -24 5 -2 10 -8 10 -14 0 -6 -7 -8 -15 -5 -8 4 -17 2 -20
-2 -10 -18 257 -34 464 -28 310 9 533 47 815 142 391 130 723 336 1040 645
1021 994 1138 2578 277 3728 -106 142 -355 398 -491 506 -555 440 -1251 653
-1945 596z m1507 -1718 c81 -40 149 -110 191 -200 29 -61 32 -75 32 -167 0
-93 -2 -105 -33 -167 -43 -89 -109 -153 -200 -196 -68 -32 -80 -35 -168 -35
l-96 0 -54 -66 c-30 -36 -83 -106 -117 -155 -101 -145 -114 -157 -188 -170
-60 -11 -65 -14 -75 -46 l-12 -35 -173 -42 c-652 -158 -991 -236 -1034 -236
-56 -1 -343 89 -328 103 12 12 287 96 773 236 366 106 606 182 675 215 82 39
131 87 228 226 l78 112 -25 43 c-109 188 -56 427 121 549 78 54 136 70 244 66
84 -2 103 -6 161 -35z m-1889 -223 c34 -18 188 -103 342 -189 154 -87 379
-213 500 -280 121 -68 226 -129 234 -136 13 -12 5 -18 -51 -44 -37 -16 -98
-38 -136 -49 l-69 -19 -104 60 c-57 34 -207 122 -334 196 -126 74 -300 175
-385 225 -210 122 -349 207 -355 217 -3 4 28 15 68 24 167 35 210 35 290 -5z
m-410 -86 c23 -15 43 -28 45 -29 2 -1 36 -251 101 -744 12 -85 21 -162 21
-170 0 -10 -17 -20 -46 -28 -26 -7 -48 -11 -49 -10 -3 5 -115 868 -121 941 -4
37 -4 67 0 67 3 0 25 -12 49 -27z m596 -371 l104 -58 39 -164 c21 -90 37 -169
34 -175 -2 -7 -23 -17 -45 -22 -34 -9 -41 -8 -45 6 -3 9 -23 90 -45 181 -45
187 -56 223 -64 200 -5 -14 -54 -364 -59 -425 -3 -25 -9 -31 -50 -44 -27 -8
-50 -12 -53 -10 -6 7 67 569 74 569 4 -1 53 -27 110 -58z m2433 -320 c43 -25
61 -73 56 -154 -3 -64 -7 -73 -36 -99 -81 -73 -199 -60 -257 28 -27 41 -44 43
-429 43 l-322 0 -32 45 c-18 25 -32 48 -32 50 0 3 180 5 399 5 l400 0 28 43
c18 26 41 47 63 54 43 16 123 8 162 -15z m-1085 -219 c40 -54 96 -128 126
-164 53 -64 57 -66 110 -72 118 -12 242 -103 302 -222 28 -56 30 -68 30 -170
0 -98 -3 -116 -27 -167 -88 -188 -299 -282 -490 -217 -110 37 -192 110 -246
219 -24 50 -27 66 -27 165 0 101 2 115 29 170 28 57 122 163 174 196 22 14 21
15 -78 129 -55 63 -100 117 -100 120 1 3 19 16 41 30 22 14 48 37 57 53 9 15
19 27 22 27 4 0 38 -44 77 -97z m-1031 -305 c-17 -86 -27 -109 -53 -119 -40
-15 -69 10 -78 66 -3 26 -5 48 -3 50 3 3 118 32 132 34 5 1 6 -13 2 -31z
m-766 -32 c36 -11 46 -19 52 -42 4 -16 26 -188 49 -381 24 -194 44 -351 46
-349 3 3 16 95 78 571 10 72 23 135 29 142 6 6 31 14 55 18 l43 7 -6 -38 c-10
-64 -83 -622 -117 -894 -18 -151 -37 -264 -45 -277 -9 -14 -24 -23 -39 -23
-37 0 -51 34 -64 155 -7 61 -39 326 -72 590 -53 435 -64 535 -56 535 1 0 22
-6 47 -14z m-1530 -616 c10 -14 16 -16 22 -7 4 7 7 4 6 -10 -2 -20 -28 -22
-28 -1 0 5 -4 7 -9 4 -5 -3 -11 3 -14 14 -7 26 5 26 23 0z m130 6 c0 -2 -7 -7
-16 -10 -8 -3 -12 -2 -9 4 6 10 25 14 25 6z m50 -7 c0 -5 5 -7 12 -3 7 4 8 3
4 -5 -6 -9 -11 -9 -22 0 -17 14 -18 19 -4 19 6 0 10 -5 10 -11z m46 -69 c1 -6
2 -15 3 -21 0 -5 5 -8 10 -4 5 3 12 1 16 -5 4 -6 -5 -10 -19 -10 -23 0 -31 9
-27 33 1 5 -3 6 -9 2 -6 -3 -7 -12 -4 -18 5 -9 4 -9 -5 -1 -10 9 -10 16 0 33
13 20 32 15 35 -9z m-63 -17 c-5 -11 -8 -12 -13 -2 -5 7 -6 19 -3 26 5 11 8
12 13 2 5 -7 6 -19 3 -26z m-29 -18 c-4 -8 -8 -15 -10 -15 -2 0 -4 7 -4 15 0
8 4 15 10 15 5 0 7 -7 4 -15z m307 -72 c13 -16 12 -17 -3 -4 -17 13 -22 21
-14 21 2 0 10 -8 17 -17z m949 -893 c0 -5 -2 -10 -4 -10 -3 0 -8 5 -11 10 -3
6 -1 10 4 10 6 0 11 -4 11 -10z"/>
<path d="M6247 6096 c-68 -19 -126 -64 -160 -125 -77 -136 -7 -315 141 -365
174 -60 342 60 343 243 1 99 -45 178 -127 223 -61 33 -133 42 -197 24z"/>
<path d="M5791 5244 c-28 -36 -26 -66 5 -103 48 -58 124 -26 124 51 0 70 -87
105 -129 52z"/>
<path d="M6226 4606 c-99 -37 -166 -134 -166 -240 1 -148 108 -256 256 -256
151 0 266 127 251 276 -9 88 -62 165 -142 206 -51 26 -147 33 -199 14z"/>
<path d="M2776 3937 c3 -10 9 -15 12 -12 3 3 0 11 -7 18 -10 9 -11 8 -5 -6z"/>
<path d="M3085 3883 c-15 -12 -16 -14 -3 -10 11 4 18 0 21 -11 3 -9 4 -5 4 11
-1 15 -2 27 -2 27 0 0 -9 -8 -20 -17z"/>
<path d="M3157 3835 c-4 -8 -3 -16 1 -19 4 -3 9 4 9 15 2 23 -3 25 -10 4z"/>
<path d="M3280 3810 c0 -5 5 -10 10 -10 6 0 10 5 10 10 0 6 -4 10 -10 10 -5 0
-10 -4 -10 -10z"/>
<path d="M3190 3791 c0 -10 19 -25 25 -20 1 2 -3 10 -11 17 -8 7 -14 8 -14 3z"/>
<path d="M3365 3690 c3 -5 8 -10 11 -10 2 0 4 5 4 10 0 6 -5 10 -11 10 -5 0
-7 -4 -4 -10z"/>
<path d="M3500 3505 c0 -8 4 -15 10 -15 5 0 7 7 4 15 -4 8 -8 15 -10 15 -2 0
-4 -7 -4 -15z"/>
<path d="M3780 3282 c0 -5 7 -13 16 -16 10 -4 14 -1 12 6 -5 15 -28 23 -28 10z"/>
<path d="M4760 2430 c0 -5 5 -10 11 -10 5 0 7 5 4 10 -3 6 -8 10 -11 10 -2 0
-4 -4 -4 -10z"/>
<path d="M4808 2363 c7 -3 16 -2 19 1 4 3 -2 6 -13 5 -11 0 -14 -3 -6 -6z"/>
<path d="M4773 2343 c9 -2 23 -2 30 0 6 3 -1 5 -18 5 -16 0 -22 -2 -12 -5z"/>
</g>
</svg>
